<svg width="60" height="60" viewBox="0 0 60 60" fill="none" xmlns="http://www.w3.org/2000/svg">
<path d="M55 0H5C3.67392 0 2.40215 0.526784 1.46447 1.46447C0.526784 2.40215 0 3.67392 0 5V55C0 56.3261 0.526784 57.5979 1.46447 58.5355C2.40215 59.4732 3.67392 60 5 60H38.9656C39.6223 60.0011 40.2727 59.8721 40.8793 59.6206C41.486 59.369 42.0368 58.9998 42.5 58.5344L58.5344 42.5C58.9998 42.0368 59.369 41.486 59.6206 40.8793C59.8721 40.2727 60.0011 39.6223 60 38.9656V5C60 3.67392 59.4732 2.40215 58.5355 1.46447C57.5979 0.526784 56.3261 0 55 0ZM20 17.5H40C40.663 17.5 41.2989 17.7634 41.7678 18.2322C42.2366 18.7011 42.5 19.337 42.5 20C42.5 20.663 42.2366 21.2989 41.7678 21.7678C41.2989 22.2366 40.663 22.5 40 22.5H20C19.337 22.5 18.7011 22.2366 18.2322 21.7678C17.7634 21.2989 17.5 20.663 17.5 20C17.5 19.337 17.7634 18.7011 18.2322 18.2322C18.7011 17.7634 19.337 17.5 20 17.5ZM30 42.5H20C19.337 42.5 18.7011 42.2366 18.2322 41.7678C17.7634 41.2989 17.5 40.663 17.5 40C17.5 39.337 17.7634 38.7011 18.2322 38.2322C18.7011 37.7634 19.337 37.5 20 37.5H30C30.663 37.5 31.2989 37.7634 31.7678 38.2322C32.2366 38.7011 32.5 39.337 32.5 40C32.5 40.663 32.2366 41.2989 31.7678 41.7678C31.2989 42.2366 30.663 42.5 30 42.5ZM20 32.5C19.337 32.5 18.7011 32.2366 18.2322 31.7678C17.7634 31.2989 17.5 30.663 17.5 30C17.5 29.337 17.7634 28.7011 18.2322 28.2322C18.7011 27.7634 19.337 27.5 20 27.5H40C40.663 27.5 41.2989 27.7634 41.7678 28.2322C42.2366 28.7011 42.5 29.337 42.5 30C42.5 30.663 42.2366 31.2989 41.7678 31.7678C41.2989 32.2366 40.663 32.5 40 32.5H20ZM40 53.9656V40H53.9688L40 53.9656Z" fill="#0D9488"/>
</svg>
