<svg width="76" height="56" viewBox="0 0 76 56" fill="none" xmlns="http://www.w3.org/2000/svg">
<path d="M50.4999 28C47.2874 28 44.1812 26.5656 41.7499 23.9625C39.3859 21.4234 37.9421 18.0375 37.6874 14.4313C37.4156 10.5844 38.589 7.04688 40.9906 4.46875C43.3921 1.89063 46.7499 0.5 50.4999 0.5C54.2234 0.5 57.5906 1.91562 59.9843 4.4875C62.4015 7.08437 63.5781 10.6156 63.3062 14.4297C63.0453 18.0406 61.6031 21.425 59.2437 23.9609C56.8187 26.5656 53.714 28 50.4999 28ZM71.0984 55.5H29.9031C29.2407 55.5035 28.5864 55.3551 27.9905 55.0661C27.3945 54.777 26.8729 54.3551 26.4656 53.8328C26.0335 53.2666 25.7352 52.61 25.5929 51.9121C25.4505 51.2143 25.4679 50.4933 25.6437 49.8031C26.9593 44.5203 30.2187 40.1391 35.0687 37.1344C39.3734 34.4688 44.8531 33 50.4999 33C56.2578 33 61.5937 34.4062 65.9234 37.0703C70.7843 40.0594 74.0484 44.4656 75.3578 49.8125C75.5314 50.5032 75.5468 51.2242 75.4029 51.9217C75.259 52.6191 74.9594 53.2751 74.5265 53.8406C74.1196 54.3605 73.5992 54.7803 73.0049 55.068C72.4107 55.3556 71.7585 55.5034 71.0984 55.5ZM20.9687 28.625C15.4703 28.625 10.6359 23.5125 10.1874 17.2297C9.96557 14.0109 10.9687 11.0344 12.9999 8.85156C15.0093 6.69062 17.8437 5.5 20.9687 5.5C24.0937 5.5 26.9062 6.69688 28.9265 8.87031C30.9734 11.0703 31.9734 14.0406 31.739 17.2328C31.2906 23.5141 26.4578 28.625 20.9687 28.625ZM31.2281 33.5391C28.4796 32.1953 24.9124 31.5234 20.9703 31.5234C16.3671 31.5234 11.8968 32.7234 8.3812 34.9016C4.39526 37.375 1.71401 40.9766 0.631194 45.325C0.472734 45.9505 0.457746 46.6037 0.587353 47.2357C0.71696 47.8678 0.987805 48.4624 1.37963 48.975C1.75143 49.4523 2.22773 49.838 2.77192 50.1023C3.31611 50.3667 3.91369 50.5028 4.51869 50.5H21.8624C22.1552 50.5 22.4386 50.3972 22.6633 50.2096C22.8881 50.022 23.0398 49.7615 23.0921 49.4734C23.1093 49.375 23.1312 49.2766 23.1562 49.1797C24.4812 43.8578 27.5859 39.3609 32.1734 36.0828C32.3421 35.9612 32.4778 35.7994 32.5682 35.6121C32.6586 35.4247 32.7008 35.2178 32.6911 35.01C32.6813 34.8023 32.6198 34.6002 32.5122 34.4222C32.4046 34.2442 32.2543 34.0959 32.0749 33.9906C31.8296 33.8469 31.5484 33.6953 31.2281 33.5391Z" fill="#0D9488"/>
</svg>
