<svg width="64" height="64" viewBox="0 0 64 64" fill="none" xmlns="http://www.w3.org/2000/svg">
<path d="M22.7143 0.565674C21.3882 0.565674 20.1164 1.09246 19.1787 2.03014C18.2411 2.96782 17.7143 4.23959 17.7143 5.56567V17.7142H5.57141C4.24533 17.7142 2.97356 18.241 2.03588 19.1787C1.0982 20.1164 0.571411 21.3882 0.571411 22.7142V41.2857C0.571411 44.0457 2.81141 46.2857 5.57141 46.2857H17.7143V58.4314C17.7143 61.1942 19.9543 63.4314 22.7143 63.4314H41.2857C42.6118 63.4314 43.8836 62.9046 44.8212 61.9669C45.7589 61.0292 46.2857 59.7575 46.2857 58.4314V46.2857H58.4286C59.7546 46.2857 61.0264 45.7589 61.9641 44.8212C62.9018 43.8835 63.4286 42.6118 63.4286 41.2857V22.7142C63.4286 21.3882 62.9018 20.1164 61.9641 19.1787C61.0264 18.241 59.7546 17.7142 58.4286 17.7142H46.2857V5.56567C46.2857 4.23959 45.7589 2.96782 44.8212 2.03014C43.8836 1.09246 42.6118 0.565674 41.2857 0.565674H22.7143Z" fill="#0D9488"/>
</svg>
